# AST/ASF file generated using VICON BodyLanguage
# -----------------------------------------------
:version 1.10
:name VICON
:units
  mass 1.0
  length 0.45
  angle deg
:documentation
   .ast/.asf automatically generated from VICON data using
   VICON BodyBuilder and BodyLanguage model FoxedUp or BRILLIANT.MOD
:root
   order TX TY TZ RX RY RZ
   axis XYZ
   position 0 0 0  
   orientation 0 -0 0 
:bonedata
  begin
     id 1 
     name lhipjoint
     direction 0.432694 -0.693742 0.575759 
     length 2.19277 
     axis 0 -0 0  XYZ
  end
  begin
     id 2 
     name lfemur
     direction 0.34202 -0.939693 0  
     length 6.69022  
     axis 0 -0 20  XYZ
    dof rx ry rz
    limits (-160.0 20.0)
           (-70.0 70.0)
           (-60.0 70.0)
  end
  begin
     id 3 
     name ltibia
     direction 0.34202 -0.939693 0   
     length 6.50337   
     axis 0 -0 20   XYZ
    dof rx
    limits (-10.0 170.0)
  end
  begin
     id 4 
     name lfoot
     direction 0.158999 -0.435969 0.885805   
     length 2.70564   
     axis -90 -1.13533e-015 20   XYZ
    dof rx rz
    limits (-45.0 90.0)
           (-70.0 20.0)
  end
  begin
     id 5 
     name ltoes
     direction -0.00592919 0.00964381 0.999936   
     length 1.29929   
     axis -90 -1.13533e-015 20   XYZ
    dof rx
    limits (-90.0 20.0)
  end
  begin
     id 6 
     name rhipjoint
     direction -0.414359 -0.700339 0.581234   
     length 2.17212  
     axis 0 -0 0  XYZ 
  end
  begin
     id 7 
     name rfemur
     direction -0.34202 -0.939693 0   
     length 7.17659   
     axis 0 -0 -20   XYZ
    dof rx ry rz
    limits (-160.0 20.0)
           (-70.0 70.0)
           (-70.0 60.0)
  end
  begin
     id 8 
     name rtibia
     direction -0.34202 -0.939693 0   
     length 6.36669   
     axis 0 -0 -20   XYZ
    dof rx
    limits (-10.0 170.0)
 end
 begin
     id 9 
     name rfoot
     direction -0.137064 -0.37658 0.916188   
     length 2.22351  
     axis -90 1.13533e-015 -20   XYZ
    dof rx rz
    limits (-45.0 90.0)
           (-20.0 70.0)
  end
  begin
     id 10 
     name rtoes
     direction -0.000784077 -0.00289101 0.999996   
     length 1.09522   
     axis -90 1.13533e-015 -20   XYZ
    dof rx
    limits (-90.0 20.0)
  end
  begin
     id 11 
     name lowerback
     direction -0.0176242 0.984912 -0.172157   
     length 1.65301   
     axis 0 -0 0   XYZ
    dof rx ry rz
    limits (-20.0 45.0)
           (-30.0 30.0)
           (-30.0 30.0)
  end
  begin
     id 12 
     name upperback
     direction -0.00218128 0.998776 -0.0494072   
     length 1.67776   
     axis 0 -0 0   XYZ
    dof rx ry rz
    limits (-20.0 45.0)
           (-30.0 30.0)
           (-30.0 30.0)
  end
  begin
     id 13 
     name thorax
     direction 0.00544186 0.999658 0.0255711   
     length 1.72293   
     axis 0 -0 0   XYZ
    dof rx ry rz
    limits (-20.0 45.0)
           (-30.0 30.0)
           (-30.0 30.0)
  end
  begin
     id 14 
     name lowerneck
     direction -0.105325 0.983841 0.144785   
     length 2.14226   
     axis 0 -0 0   XYZ
    dof rx ry rz
    limits (-20.0 45.0)
           (-30.0 30.0)
           (-30.0 30.0)
  end
  begin
     id 15 
     name upperneck
     direction 0.0547957 0.988053 -0.144041   
     length 2.17508   
     axis 0 -0 0   XYZ
    dof rx ry rz
    limits (-20.0 45.0)
           (-30.0 30.0)
           (-30.0 30.0)
  end
  begin
     id 16
     name head
     direction 0.0247488 0.997534 -0.0656813  
     length 2.20048  
     axis 0 -0 0   XYZ
    dof rx ry rz
    limits (-20.0 45.0)
           (-30.0 30.0)
           (-30.0 30.0)
  end
  begin
     id 17 
     name lclavicle
     direction 0.820559 0.567247 -0.0701026  
     length 4.09615  
     axis 0 -0 0   XYZ
    dof ry rz
    limits (-20.0 10.0)
           (0.0 20.0)
  end
  begin
     id 18 
     name lhumerus
     direction 0.999977 -0.0067566 -9.96392e-005   
     length 4.59333   
     axis -180 -30 -90   XYZ
    dof rx ry rz
    limits (-60.0 90.0)
           (-90.0 90.0)
           (-90.0 90.0)
  end
  begin
     id 19
     name lradius
     direction 1 -4.48982e-011 -2.53425e-027   
     length 2.81151   
     axis -180 -30 -90   XYZ
    dof rx
    limits (-10.0 170.0)
  end
  begin
     id 20
     name lwrist
     direction 1 -4.48939e-011 -7.39254e-028   
     length 1.40576   
     axis 2.56395e-016 90 90   XYZ
    dof ry
    limits (-180.0 0.0)
 end
  begin
     id 21 
     name lhand
     direction 1 -4.48939e-011 -1.47851e-027   
     length 0.895651   
     axis 9.43423e-016 90 90   XYZ
    dof rx rz
    limits (-90.0 90.0)
           (-45.0 45.0)
  end
  begin
     id 22 
     name lfingers
     direction 1 -4.48978e-011 -2.95702e-027   
     length 0.722097   
     axis 1.88685e-015 90 90   XYZ
    dof rx
    limits (0.0 90.0)
  end
  begin
     id 23
     name lthumb
     direction 0.707107 -6.34931e-011 0.707107   
     length 1.03679   
     axis -90 45 -9.86935e-015   XYZ
    dof rx rz
    limits (-45.0 45.0)
           (-45.0 45.0)
  end
  begin
     id 24 
     name rclavicle
     direction -0.831414 0.553102 -0.0531864   
     length 4.24872  
     axis 0 -0 0   XYZ 
    dof ry rz
    limits (-10.0 20.0)
           (-20.0 0.0)
  end
  begin
     id 25 
     name rhumerus
     direction -0.999916 -0.000939607 0.0129331  
     length 4.74834   
     axis -180 30 90   XYZ
    dof rx ry rz
    limits (-90.0 60.0)
           (-90.0 90.0)
           (-90.0 90.0)
  end
  begin
     id 26 
     name rradius
     direction -1 -4.48956e-011 -1.31752e-027   
     length 2.79907   
     axis -180 30 90   XYZ
    dof rx
    limits (-10.0 170.0)
  end
  begin
     id 27 
     name rwrist
     direction -1 -4.4897e-011 -7.39254e-028   
     length 1.39954   
     axis 2.56395e-016 -90 -90   XYZ
    dof ry
    limits (-180.0 0.0)
  end
  begin
     id 28
     name rhand
     direction -0.999997 -0.00250697 0.000800838   
     length 0.953304   
     axis 9.43423e-016 -90 -90   XYZ
    dof rx rz
    limits (-90.0 90.0)
           (-45.0 45.0)
  end
  begin
     id 29
     name rfingers
     direction -1 -4.48954e-011 -2.95702e-027   
     length 0.763342   
     axis 1.88685e-015 -90 -90   XYZ
    dof rx
    limits (0.0 90.0)
  end
  begin
     id 30
     name rthumb
     direction -0.709701 -0.00217037 0.7045   
     length 1.10115   
     axis -90 -45 9.86935e-015   XYZ
    dof rx rz
    limits (-45.0 45.0)
           (-45.0 45.0)
  end
:hierarchy
  begin
    root lhipjoint rhipjoint lowerback
    lhipjoint lfemur
    lfemur ltibia
    ltibia lfoot
    lfoot ltoes
    rhipjoint rfemur
    rfemur rtibia
    rtibia rfoot
    rfoot rtoes
    lowerback upperback
    upperback thorax
    thorax lowerneck lclavicle rclavicle
    lowerneck upperneck
    upperneck head
    lclavicle lhumerus
    lhumerus lradius
    lradius lwrist
    lwrist lhand lthumb
    lhand lfingers
    rclavicle rhumerus
    rhumerus rradius
    rradius rwrist
    rwrist rhand rthumb
    rhand rfingers
  end

#!OML:ASF G:\ViconDB\ViconDB\414\test\team2\shane.ASF
:FULLY-SPECIFIED
:DEGREES
82
root 1.87106 16.406 -11.9464 -9.25717 8.52905 -5.56265
lowerback 8.868 -4.87191 -1.37471
upperback 2.3663 -6.48052 4.69641
thorax -1.7814 -3.25965 6.29792
lowerneck -15.5175 -1.9689 -9.87254
upperneck 20.1049 -1.97155 7.6034
head 9.03203 -0.869773 4.02429
rclavicle -4.31922e-014 3.81667e-014
rhumerus -66.8929 -9.91941 -36.563
rradius 24.0385
rwrist 49.5252
rhand -26.7296 -13.7328
rfingers 7.12502
rthumb -0.158889 -43.7125
lclavicle -4.31922e-014 3.81667e-014
lhumerus -8.87246 -26.5224 95.8591
lradius 64.2258
lwrist -22.8576
lhand -46.4729 4.91205
lfingers 7.12502
lthumb -19.2005 33.9842
rfemur -18.8855 -19.0858 25.9682
rtibia 38.7613
rfoot -20.7766 1.6018
rtoes -12.9608
lfemur 38.155 0.657945 -6.2404
ltibia -4.77083e-014
lfoot -10.1974 -26.2696
ltoes -29.2484
83
root 1.8613 16.415 -11.7256 -9.35861 8.3419 -5.78359
lowerback 8.6056 -4.74098 -0.940091
upperback 2.5237 -6.27502 4.72306
thorax -1.54164 -3.16346 6.02899
lowerneck -15.5154 -2.0444 -9.82665
upperneck 19.9735 -2.06729 7.53525
head 8.99521 -0.916666 3.9776
rclavicle 7.75757e-014 -1.35174e-014
rhumerus -66.2373 -10.7453 -37.5252
rradius 23.9422
rwrist 49.8686
rhand -27.0936 -14.4639
rfingers 7.12502
rthumb -0.510491 -44.443
lclavicle 7.75757e-014 -1.35174e-014
lhumerus -10.3274 -26.2734 96.445
lradius 63.3821
lwrist -22.6876
lhand -46.0738 4.89951
lfingers 7.12502
lthumb -18.8166 34.0094
rfemur -18.1544 -18.9839 26.1339
rtibia 39.0717
rfoot -20.6959 2.70138
rtoes -11.6025
lfemur 35.4551 0.537963 -5.61903
ltibia 6.81844
lfoot -10.2003 -27.4953
ltoes -30.6756
84
root 1.84811 16.4235 -11.5034 -9.49466 8.24579 -5.95127
lowerback 8.45075 -4.66278 -0.61734
upperback 2.67935 -6.14933 4.81147
thorax -1.33273 -3.10625 5.90636
lowerneck -15.7756 -2.15417 -10.0641
upperneck 20.0827 -2.14024 7.54894
head 9.0916 -0.96424 4.01712
rclavicle -2.01394e-014 -1.74931e-014
rhumerus -65.0731 -10.9444 -39.1051
rradius 23.7398
rwrist 50.0619
rhand -27.3523 -14.5503
rfingers 7.12502
rthumb -0.760377 -44.5287
lclavicle -2.01394e-014 -1.74931e-014
lhumerus -11.7004 -25.7413 97.1396
lradius 62.4577
lwrist -21.8724
lhand -45.3335 4.6229
lfingers 7.12502
lthumb -18.1045 33.8003
rfemur -17.2491 -18.8867 26.2412
rtibia 39.2792
rfoot -20.9839 2.65293
rtoes -10.8394
lfemur 32.1896 0.351495 -5.0041
ltibia 14.6398
lfoot -10.2439 -28.7073
ltoes -31.1399
85
root 1.83303 16.436 -11.2857 -9.62834 8.23966 -6.07837
lowerback 8.3928 -4.52501 -0.381862
upperback 2.76477 -5.94907 4.83173
thorax -1.25535 -3.00689 5.76967
lowerneck -15.7272 -2.26849 -9.98875
upperneck 19.977 -2.28598 7.40365
head 9.05898 -1.04153 3.93239
rclavicle 2.91468e-014 7.95139e-016
rhumerus -64.0782 -11.0656 -41.2148
rradius 23.7734
rwrist 49.4016
rhand -27.65 -14.8636
rfingers 7.12502
rthumb -1.04791 -44.8408
lclavicle 2.91468e-014 7.95139e-016
lhumerus -13.2559 -25.425 97.866
lradius 61.3694
lwrist -21.3331
lhand -44.9171 4.87111
lfingers 7.12502
lthumb -17.7039 34.0852
rfemur -16.2905 -19.0244 26.2665
rtibia 39.3865
rfoot -21.4404 2.26363
rtoes -11.1177
lfemur 29.7338 0.639343 -4.12801
ltibia 20.416
lfoot -8.81032 -30.0519
ltoes -30.6096
86
root 1.81557 16.451 -11.068 -9.78838 8.28115 -6.23895
lowerback 8.26823 -4.41573 -0.108968
upperback 2.90118 -5.78854 4.83985
thorax -1.088 -2.92899 5.59341
lowerneck -15.788 -2.38203 -9.96775
upperneck 19.9856 -2.42974 7.34389
head 9.08675 -1.11245 3.89019
rclavicle -7.23079e-015 -1.43125e-014
rhumerus -63.058 -11.5527 -43.0237
rradius 23.793
rwrist 49.7842
rhand -28.0597 -15.0141
rfingers 7.12502
rthumb -1.44353 -44.9889
lclavicle -7.23079e-015 -1.43125e-014
lhumerus -14.6096 -25.1881 98.3731
lradius 60.0182
lwrist -20.4165
lhand -44.6296 5.01927
lfingers 7.12502
lthumb -17.4272 34.2581
rfemur -15.2213 -19.4107 26.3075
rtibia 39.3463
rfoot -21.8541 2.15343
rtoes -10.6765
lfemur 27.5568 0.841089 -3.19829
ltibia 25.6082
lfoot -6.83062 -31.1662
ltoes -28.2006
87
root 1.797 16.4666 -10.8566 -9.8561 8.33883 -6.58042
lowerback 8.28703 -4.30215 0.228932
upperback 2.89778 -5.60529 4.9848
thorax -1.13729 -2.83454 5.54449
lowerneck -15.8533 -2.53345 -10.1312
upperneck 20.1088 -2.60808 7.39418
head 9.16222 -1.20322 3.91586
rclavicle 4.76835e-014 -4.13472e-014
rhumerus -61.9358 -11.6755 -45.0233
rradius 23.926
rwrist 49.4778
rhand -28.3924 -14.841
rfingers 7.12502
rthumb -1.7649 -44.8135
lclavicle 4.76835e-014 -4.13472e-014
lhumerus -16.0086 -24.9222 99.045
lradius 58.4475
lwrist -19.4499
lhand -44.3238 5.38902
lfingers 7.12502
lthumb -17.1329 34.6536
rfemur -14.2676 -20.0256 26.5807
rtibia 39.2015
rfoot -22.1969 2.65557
rtoes -10.1196
lfemur 25.2893 1.09002 -2.12905
ltibia 30.4639
lfoot -4.98771 -32.1632
ltoes -25.5241
88
root 1.77471 16.4833 -10.6521 -9.93596 8.38611 -7.05843
lowerback 8.24252 -4.1604 0.806725
upperback 2.92754 -5.36897 5.07553
thorax -1.14861 -2.71195 5.29231
lowerneck -15.7121 -2.71693 -10.1751
upperneck 20.0178 -2.88241 7.47771
head 9.13398 -1.32722 3.91576
rclavicle -2.55066e-014 2.06736e-014
rhumerus -60.7008 -11.3687 -47.8009
rradius 24.2196
rwrist 48.1847
rhand -28.7251 -14.6557
rfingers 7.12502
rthumb -2.08623 -44.6252
lclavicle -2.55066e-014 2.06736e-014
lhumerus -17.2946 -24.8042 99.5241
lradius 56.5779
lwrist -18.806
lhand -44.1054 5.6979
lfingers 7.12502
lthumb -16.9227 34.9806
rfemur -13.3024 -20.4333 27.0337
rtibia 38.9729
rfoot -22.6232 2.92367
rtoes -9.50378
lfemur 23.0396 1.14001 -0.997781
ltibia 35.1155
lfoot -2.76838 -32.8603
ltoes -21.426
89
root 1.74681 16.5011 -10.4447 -10.0488 8.53339 -7.27837
lowerback 8.4245 -3.98334 0.997163
upperback 2.89848 -5.10532 5.14676
thorax -1.31148 -2.576 5.25613
lowerneck -15.6284 -2.91506 -10.0515
upperneck 20.0539 -3.16175 7.30955
head 9.15471 -1.46793 3.80088
rclavicle -8.88319e-015 7.87187e-014
rhumerus -59.5715 -11.2259 -50.2291
rradius 24.5419
rwrist 47.4283
rhand -29.1992 -14.4197
rfingers 7.12502
rthumb -2.54405 -44.3843
lclavicle -8.88319e-015 7.87187e-014
lhumerus -18.4016 -24.6226 99.9512
lradius 54.1936
lwrist -18.5818
lhand -44.1396 5.42666
lfingers 7.12502
lthumb -16.9556 34.7066
rfemur -12.2198 -20.9442 27.1454
rtibia 38.6884
rfoot -22.8854 3.16467
rtoes -8.76198
lfemur 20.8829 1.12414 -0.192169
ltibia 39.5041
lfoot -0.759431 -33.2179
ltoes -15.1724
90
root 1.72873 16.5147 -10.2466 -10.0474 8.52458 -7.60515
lowerback 8.33145 -3.75361 1.54638
upperback 2.93824 -4.75785 5.15806
thorax -1.29181 -2.39798 4.92107
lowerneck -15.5887 -3.16715 -10.1028
upperneck 20.0541 -3.54025 7.46576
head 9.18844 -1.6326 3.81604
rclavicle -1.19855e-013 1.10524e-013
rhumerus -58.2058 -11.2354 -52.5818
rradius 24.6412
rwrist 47.3412
rhand -29.8752 -14.3555
rfingers 7.12502
rthumb -3.19693 -44.3113
lclavicle -1.19855e-013 1.10524e-013
lhumerus -19.35 -24.8243 100.394
lradius 51.9212
lwrist -17.3871
lhand -44.2012 5.95074
lfingers 7.12502
lthumb -17.0148 35.2256
rfemur -11.3349 -21.2048 27.4399
rtibia 38.3687
rfoot -23.1266 3.2488
rtoes -8.28426
lfemur 18.6828 1.36225 0.755505
ltibia 43.6737
lfoot 0.241538 -33.1558
ltoes -10.0723
91
root 1.70435 16.5251 -10.0484 -10.2412 8.44117 -7.92882
lowerback 8.48769 -3.48778 1.85733
upperback 3.01221 -4.37024 5.25676
thorax -1.34471 -2.2018 4.82503
lowerneck -15.4915 -3.43399 -10.2925
upperneck 20.0214 -3.92713 7.70232
head 9.20659 -1.80409 3.88096
rclavicle -2.52581e-014 -2.70347e-014
rhumerus -56.6857 -10.4658 -55.6948
rradius 25.1525
rwrist 45.3446
rhand -30.2505 -14.4575
rfingers 7.12502
rthumb -3.55937 -44.4075
lclavicle -2.52581e-014 -2.70347e-014
lhumerus -20.1466 -24.4655 100.719
lradius 49.1706
lwrist -17.3984
lhand -43.6265 5.96439
lfingers 7.12502
lthumb -16.4616 35.286
rfemur -10.1918 -21.2667 27.706
rtibia 38.0182
rfoot -23.3326 3.19481
rtoes -7.95618
lfemur 16.8021 1.4331 1.59835
ltibia 47.5402
lfoot -1.11008 -31.8092
ltoes -8.045
92
root 1.68874 16.5363 -9.85399 -10.4262 8.24275 -8.14276
lowerback 8.58449 -3.17979 2.2823
upperback 3.16291 -3.92615 5.2257
thorax -1.30319 -1.97651 4.5141
lowerneck -15.5445 -3.65147 -9.94509
upperneck 19.8827 -4.27407 7.55894
head 9.19244 -1.95229 3.72378
rclavicle -2.13197e-014 -2.70347e-014
rhumerus -55.1973 -11.1849 -57.5148
rradius 25.4912
rwrist 45.5568
rhand -30.9225 -14.1765
rfingers 7.12502
rthumb -4.20829 -44.1146
lclavicle -2.13197e-014 -2.70347e-014
lhumerus -20.9544 -24.3431 100.947
lradius 46.5595
lwrist -17.2286
lhand -43.2921 6.28238
lfingers 7.12502
lthumb -16.1396 35.6304
rfemur -8.99816 -21.2928 27.7985
rtibia 37.6123
rfoot -23.5318 3.40518
rtoes -7.03886
lfemur 14.9825 1.89673 2.37005
ltibia 51.1617
lfoot -4.11874 -29.7882
ltoes -9.60577
93
root 1.67264 16.5429 -9.66062 -10.5756 7.92918 -8.34207
lowerback 8.57543 -2.85063 2.77936
upperback 3.33733 -3.45694 5.16119
thorax -1.17902 -1.73762 4.11697
lowerneck -15.3065 -3.934 -9.88759
upperneck 19.6052 -4.72198 7.68829
head 9.09875 -2.14657 3.69758
rclavicle 3.00165e-014 -3.89618e-014
rhumerus -53.3364 -10.6269 -60.5446
rradius 25.987
rwrist 44.1574
rhand -31.5448 -14.5611
rfingers 7.12502
rthumb -4.80924 -44.4865
lclavicle 3.00165e-014 -3.89618e-014
lhumerus -21.6807 -24.2427 100.974
lradius 43.8709
lwrist -16.742
lhand -43.3405 6.34553
lfingers 7.12502
lthumb -16.1862 35.6897
rfemur -7.79358 -21.1505 27.9117
rtibia 37.1043
rfoot -23.7369 3.58466
rtoes -5.9776
lfemur 13.3004 2.58683 3.16969
ltibia 54.4008
lfoot -7.02463 -27.4853
ltoes -10.798
94
root 1.65764 16.5573 -9.47052 -10.6975 7.48514 -8.51128
lowerback 8.63452 -2.49628 3.15556
upperback 3.4786 -2.95816 5.15029
thorax -1.1094 -1.48443 3.84656
lowerneck -15.2529 -4.1795 -9.83909
upperneck 19.4436 -5.10243 7.81672
head 9.07303 -2.3076 3.6823
rclavicle 4.72611e-014 -7.31528e-014
rhumerus -51.3918 -10.5766 -62.8995
rradius 26.3442
rwrist 44.3982
rhand -32.1597 -14.9899
rfingers 7.12502
rthumb -5.40288 -44.901
lclavicle 4.72611e-014 -7.31528e-014
lhumerus -22.5458 -23.8512 100.934
lradius 41.1747
lwrist -16.8147
lhand -42.771 5.76076
lfingers 7.12502
lthumb -15.6378 35.1487
rfemur -6.59488 -21.0087 28.022
rtibia 36.5086
rfoot -23.9399 3.85327
rtoes -5.44103
lfemur 11.5793 3.47719 3.9404
ltibia 57.3283
lfoot -8.91068 -25.2824
ltoes -10.8583
95
root 1.64505 16.5766 -9.27252 -10.7582 7.02413 -8.48339
lowerback 8.39216 -2.1379 3.48302
upperback 3.69161 -2.48719 4.99643
thorax -0.795865 -1.24333 3.44077
lowerneck -15.2316 -4.37226 -9.81062
upperneck 19.3856 -5.4297 8.04824
head 9.0873 -2.4345 3.71477
rclavicle 1.39149e-015 -5.08889e-014
rhumerus -49.1916 -10.2252 -65.5352
rradius 26.7067
rwrist 44.0389
rhand -32.7864 -15.3945
rfingers 7.12502
rthumb -6.00797 -45.2893
lclavicle 1.39149e-015 -5.08889e-014
lhumerus -23.3935 -23.4858 100.611
lradius 38.2915
lwrist -17.7631
lhand -42.6747 5.72531
lfingers 7.12502
lthumb -15.5451 35.1205
rfemur -5.33174 -20.7613 27.9184
rtibia 35.8372
rfoot -24.17 4.10799
rtoes -5.19031
lfemur 9.96215 4.38657 4.38398
ltibia 59.7739
lfoot -10.0583 -23.4676
ltoes -10.166
96
root 1.62883 16.5945 -9.08578 -10.8047 6.67427 -8.39553
lowerback 8.27956 -1.83321 3.57842
upperback 3.88623 -2.09558 4.90556
thorax -0.552123 -1.044 3.24861
lowerneck -15.0808 -4.57202 -9.56209
upperneck 19.0809 -5.74409 7.95003
head 8.97584 -2.57611 3.5943
rclavicle 2.22142e-014 7.15625e-015
rhumerus -46.7702 -10.0583 -67.8387
rradius 27.0968
rwrist 43.9918
rhand -33.332 -15.658
rfingers 7.12502
rthumb -6.53473 -45.5372
lclavicle 2.22142e-014 7.15625e-015
lhumerus -24.3292 -23.2889 100.35
lradius 35.9932
lwrist -17.3608
lhand -42.1013 6.40714
lfingers 7.12502
lthumb -14.9928 35.8444
rfemur -4.12773 -20.3262 27.8009
rtibia 35.1171
rfoot -24.2988 4.17798
rtoes -4.62366
lfemur 8.23147 5.22022 4.67255
ltibia 61.8842
lfoot -11.1473 -21.8046
ltoes -9.944
